HIERARCHY
ROOT Hips
{
    OFFSET 0.0 0.0 0.0
    CHANNELS 6 Xposition Yposition Zposition Zrotation Xrotation Yrotation
    JOINT Spine
    {
        OFFSET 0.0 5.0 0.0
        CHANNELS 3 Zrotation Xrotation Yrotation
        JOINT Chest
        {
            OFFSET 0.0 5.0 0.0
            CHANNELS 3 Zrotation Xrotation Yrotation
            JOINT Neck
            {
                OFFSET 0.0 8.0 0.0
                CHANNELS 3 Zrotation Xrotation Yrotation
                JOINT Head
                {
                    OFFSET 0.0 5.0 0.0
                    CHANNELS 3 Zrotation Xrotation Yrotation
                    End Site
                    {
                        OFFSET 0.0 3.0 0.0
                    }
                }
            }
            JOINT LeftShoulder
            {
                OFFSET -5.0 0.0 0.0
                CHANNELS 3 Zrotation Xrotation Yrotation
                JOINT LeftArm
                {
                    OFFSET 0.0 -10.0 0.0
                    CHANNELS 3 Zrotation Xrotation Yrotation
                    JOINT LeftForeArm
                    {
                        OFFSET 0.0 -10.0 0.0
                        CHANNELS 3 Zrotation Xrotation Yrotation
                        End Site
                        {
                            OFFSET 0.0 -3.0 0.0
                        }
                    }
                }
            }
        }
    }
}

MOTION
Frames: 44
Frame Time: 0.033333
970.000000 442.938926 140.394043 0.000000 0.000000 0.000000 0.000000 0.000000 0.000000 29.678605 -18.476186 0.000000 180.000000 5.196866 0.000000 29.744881 -5.924365 -0.000000 150.255119 5.754667 30.000000 19.983107 1.851500 0.000000 18.000000 0.042134 0.000000
1354.522934 467.411410 153.593245 0.000000 0.000000 0.000000 0.000000 0.000000 0.000000 150.622570 1.773254 4.973798 -29.377430 13.350130 4.973798 140.176400 -5.705246 3.759997 -12.221629 1.510606 29.763441 132.794256 -7.495826 -3.759997 -2.626015 0.430603 0.313953
969.997807 442.887864 124.741537 0.000000 0.000000 0.000000 0.000000 0.000000 0.000000 31.061399 7.837314 9.635073 180.000000 8.955744 9.635073 30.285790 -10.127084 7.460697 149.714210 -1.076995 29.057495 19.151579 3.942753 -7.460697 18.000000 -0.591936 0.626666
1246.736984 514.278152 118.995200 0.000000 0.000000 0.000000 0.000000 0.000000 0.000000 143.557092 4.321525 13.690942 -36.442908 -18.733931 13.690942 133.761037 9.438978 11.043737 -156.950665 -5.986628 27.893295 0.000000 0.000000 0.000000 1.928484 0.461610 0.936907
1245.221100 458.637464 141.935711 0.000000 0.000000 0.000000 0.000000 0.000000 0.000000 160.701064 0.334398 16.886559 -19.298936 28.760787 16.886559 140.193827 -2.805675 14.452610 -157.554825 -5.088602 26.289200 29.500467 5.593183 -14.452610 -15.049953 -0.559318 1.243449
1257.365570 418.514181 100.057350 0.000000 0.000000 0.000000 0.000000 0.000000 0.000000 -143.710676 -1.413721 19.021130 36.289324 -0.009456 19.021130 163.220413 -1.475705 17.633558 11.688054 -1.430000 24.270510 152.038385 -0.903307 -17.633558 -2.339948 0.267941 1.545085
1275.099564 408.163741 107.085717 0.000000 0.000000 0.000000 0.000000 0.000000 0.000000 -132.929531 -8.767686 19.960535 47.070469 8.116640 19.960535 173.491912 -4.761888 20.536413 -160.709681 -5.225274 21.869059 33.138793 5.691261 -20.536413 -14.686121 -0.569126 1.840623
1290.611115 384.880857 93.903700 0.000000 0.000000 0.000000 0.000000 0.000000 0.000000 -132.705235 4.422734 19.645745 47.294765 1.682002 19.645745 -173.778854 -3.912203 23.115397 20.496835 0.411746 19.122720 -161.220290 -4.074312 -23.115397 1.723235 0.337193 2.128896
1302.817154 380.305352 104.855588 0.000000 0.000000 0.000000 0.000000 0.000000 0.000000 -131.493915 -1.292849 18.096541 48.506085 -6.066854 18.096541 -165.393697 -0.465115 25.329838 23.154815 -0.121264 16.074804 -178.200316 -0.392259 -25.329838 0.138141 -0.042254 2.408768
1304.997711 379.563582 94.584723 0.000000 0.000000 0.000000 0.000000 0.000000 0.000000 -126.727972 -2.865414 15.410265 53.272028 -8.882991 15.410265 -160.219593 9.820413 27.144812 28.448880 -2.950284 12.773379 -174.368770 -0.527496 -27.144812 0.079526 0.168627 2.679134
1311.668472 386.890390 83.730986 0.000000 0.000000 0.000000 0.000000 0.000000 0.000000 -122.308728 -9.034827 11.755705 57.691272 7.075458 11.755705 -158.801130 -4.378626 28.531695 150.942637 4.523418 9.270510 -154.878332 -5.109156 -28.531695 2.695409 0.490459 2.938926
1305.131836 395.180186 85.481241 0.000000 0.000000 0.000000 0.000000 0.000000 0.000000 -125.112810 -1.496562 7.362491 54.887190 2.323398 7.362491 -146.487292 3.026335 29.468618 -175.167369 -6.013871 5.621439 -159.224034 -3.741853 -29.468618 1.782042 0.517749 3.187120
1296.320457 392.734526 64.581604 0.000000 0.000000 0.000000 0.000000 0.000000 0.000000 -131.035750 14.887000 2.506665 48.964250 -4.709238 2.506665 -128.969563 -3.088832 29.940802 38.856147 -12.609726 1.883716 -134.776850 1.969380 -29.940802 3.458429 0.003798 3.422736
1306.963577 386.612041 81.815663 0.000000 0.000000 0.000000 0.000000 0.000000 0.000000 -124.469622 2.161287 -2.506665 55.530378 1.815951 -2.506665 -109.994856 3.733051 29.940802 37.691309 -0.514515 -1.883716 -118.274788 -1.209103 -29.940802 5.098336 0.202465 3.644843
969.892723 442.572198 72.903113 0.000000 0.000000 0.000000 0.000000 0.000000 0.000000 41.287575 -22.963014 -7.362491 180.000000 -0.433784 -7.362491 30.974696 5.821155 29.468618 149.025304 -2.615282 -5.621439 15.072869 0.560872 -29.468618 18.000000 -0.054472 3.852566
969.876883 442.545207 73.154088 0.000000 0.000000 0.000000 0.000000 0.000000 0.000000 42.241956 29.169623 -11.755705 180.000000 -11.871437 -11.755705 30.826133 -2.546854 28.531695 149.173867 -10.656041 -9.270510 14.823070 -0.003909 -28.531695 18.000000 0.370433 4.045085
969.859960 442.518116 48.837402 0.000000 0.000000 0.000000 0.000000 0.000000 0.000000 43.199779 5.033083 -15.410265 180.000000 -24.614878 -15.410265 30.649504 17.423174 27.144812 149.350496 -0.159703 -12.773379 14.587557 -1.125035 -27.144812 18.000000 -0.135351 4.221640
969.841956 442.490926 64.971827 0.000000 0.000000 0.000000 0.000000 0.000000 0.000000 44.157210 27.230190 -18.096541 180.000000 -24.038751 -18.096541 30.446417 12.817254 25.329838 149.553583 5.121886 -16.074804 14.366154 1.171029 -25.329838 18.000000 -0.266025 4.381533
969.822873 442.463637 46.099932 0.000000 0.000000 0.000000 0.000000 0.000000 0.000000 45.110117 -2.323918 -19.645745 180.000000 -24.695736 -19.645745 30.218633 2.864319 23.115397 149.781367 -8.478100 -19.122720 14.158653 1.612469 -23.115397 18.000000 0.164568 4.524135
969.802712 442.436251 53.566800 0.000000 0.000000 0.000000 0.000000 0.000000 0.000000 46.054109 -43.999652 -19.960535 180.000000 32.179597 -19.960535 29.968037 -10.039341 20.536413 150.031963 3.927550 -21.869059 13.964823 8.866810 -20.536413 18.000000 -0.466787 4.648882
1187.040939 541.658249 75.041937 0.000000 0.000000 0.000000 0.000000 0.000000 0.000000 82.806623 -28.346865 -19.021130 -97.193377 13.857812 -19.021130 45.395981 -1.056437 17.633558 -156.144455 -1.867209 -24.270510 0.000000 0.000000 0.000000 0.000000 0.000000 0.000000
1182.242889 522.024286 53.285771 0.000000 0.000000 0.000000 0.000000 0.000000 0.000000 -105.721938 -2.193094 -16.886559 74.278062 5.173629 -16.886559 -155.708006 -2.353197 14.452610 -157.302521 -2.219023 -26.289200 0.000000 0.000000 0.000000 2.684983 0.252030 4.842916
1180.914459 527.065626 63.720337 0.000000 0.000000 0.000000 0.000000 0.000000 0.000000 88.055617 -7.641564 -13.690942 -91.944383 -0.161702 -13.690942 -158.862018 -2.205701 11.043737 -151.747289 -2.094153 -27.893295 0.000000 0.000000 0.000000 0.000000 0.000000 0.000000
1236.800194 541.387432 33.635983 0.000000 0.000000 0.000000 0.000000 0.000000 0.000000 -85.588400 6.853161 -9.635073 94.411600 -4.766286 -9.635073 -159.297106 -9.809011 7.460697 -157.915391 -2.930449 -29.057495 26.607362 3.340063 -7.460697 14.926890 -3.062612 4.960574
1161.066513 575.006626 40.666067 0.000000 0.000000 0.000000 0.000000 0.000000 0.000000 -81.021168 11.050637 -4.973798 98.978832 -12.283139 -4.973798 -102.851701 7.623672 3.759997 -157.041007 -2.715386 -29.763441 21.429890 1.650924 -3.759997 10.859432 0.012860 4.990134
1255.636253 512.645942 58.355621 0.000000 0.000000 0.000000 0.000000 0.000000 0.000000 77.832564 3.121104 -0.000000 -102.167436 0.487639 -0.000000 -158.264834 -3.213574 0.000000 -130.745502 -7.763750 -30.000000 -157.699225 -1.711235 -0.000000 0.000000 0.000000 0.000000
1265.118484 521.473864 59.406015 0.000000 0.000000 0.000000 0.000000 0.000000 0.000000 64.078276 1.422017 4.973798 -115.921724 3.304070 4.973798 41.397952 3.497908 -3.759997 -139.329851 -1.057901 -29.763441 20.223252 1.054387 3.759997 -16.047574 0.026974 4.990134
1228.099480 522.138258 60.932977 0.000000 0.000000 0.000000 0.000000 0.000000 0.000000 71.050901 3.283646 9.635073 -108.949099 -8.365775 9.635073 150.099970 1.164751 -7.460697 -139.894702 -3.456531 -29.057495 -156.275691 -2.386683 7.460697 0.000000 0.000000 0.000000
1240.357246 528.695873 42.344109 0.000000 0.000000 0.000000 0.000000 0.000000 0.000000 65.413351 -7.154584 13.690942 -114.586649 12.763424 13.690942 147.242328 -5.846956 -11.043737 -154.470720 -2.085943 -27.893295 25.557225 2.264326 11.043737 -15.444278 -0.226433 4.911436
1231.815262 551.380248 65.758415 0.000000 0.000000 0.000000 0.000000 0.000000 0.000000 56.412506 10.826884 16.886559 -123.587494 -13.166221 16.886559 -153.392336 4.492023 -14.452610 -154.784582 -3.054906 -26.289200 24.191555 3.214054 14.452610 -15.580844 -0.321405 4.842916
1221.475182 508.360147 37.329449 0.000000 0.000000 0.000000 0.000000 0.000000 0.000000 77.450622 2.117357 19.021130 -102.549378 -9.579761 19.021130 -156.789784 -2.641492 -17.633558 -125.590168 -2.509373 -24.270510 -160.017240 -3.282336 17.633558 1.833434 0.370796 4.755283
969.477684 442.100429 60.667176 0.000000 0.000000 0.000000 0.000000 0.000000 0.000000 54.932575 -35.210933 19.960535 180.000000 25.829530 19.960535 25.919122 -6.489696 -20.536413 154.080878 13.506414 -21.869059 12.612867 -7.556717 20.536413 18.000000 0.545480 4.648882
1480.140495 518.878891 71.812670 0.000000 0.000000 0.000000 0.000000 0.000000 0.000000 -110.621767 -87.258516 19.645745 69.378233 80.293188 19.645745 -158.235933 -2.513944 -23.115397 166.031448 4.013404 -19.122720 -155.186432 -2.900996 23.115397 2.641553 0.238588 4.524135
1271.640472 556.840560 64.542002 0.000000 0.000000 0.000000 0.000000 0.000000 0.000000 -94.404719 2.937308 18.096541 85.595281 -3.251427 18.096541 -62.417786 5.106783 -25.329838 23.992813 -3.816270 -16.074804 -76.856107 1.094794 25.329838 7.708835 -0.059569 4.381533
1258.556786 530.268441 82.850408 0.000000 0.000000 0.000000 0.000000 0.000000 0.000000 78.355945 -3.225578 15.410265 -101.644055 10.361500 15.410265 35.068294 -1.818004 -27.144812 -54.090640 6.927447 -12.773379 35.848220 -11.533775 27.144812 -8.104639 0.852318 4.221640
1250.800209 527.150567 77.438888 0.000000 0.000000 0.000000 0.000000 0.000000 0.000000 72.417769 11.529581 11.755705 -107.582231 -8.653881 11.755705 24.571109 0.031229 -28.531695 -39.196117 -1.276333 -9.270510 10.411117 -1.205182 28.531695 -9.048616 -3.916391 4.045085
1243.466148 571.776259 85.107813 0.000000 0.000000 0.000000 0.000000 0.000000 0.000000 86.301473 3.391595 7.362491 -93.698527 -2.059900 7.362491 24.553534 4.866099 -29.468618 -153.460385 -3.739124 -5.621439 19.510484 2.934864 29.468618 -10.109500 2.589681 3.852566
1261.883812 566.052918 88.177716 0.000000 0.000000 0.000000 0.000000 0.000000 0.000000 94.015209 -15.963752 2.506665 -85.984791 18.071995 2.506665 38.959993 -3.623822 -29.940802 -154.008305 -3.643764 -1.883716 20.870951 3.181915 29.940802 -10.872440 0.715112 3.644843
1284.436798 527.190542 100.540591 0.000000 0.000000 0.000000 0.000000 0.000000 0.000000 111.186365 -6.875984 -2.506665 -68.813635 -7.279452 -2.506665 58.506163 -0.612017 -29.940802 -19.138727 -5.037759 1.883716 51.457372 11.152235 29.940802 -5.203198 -0.106970 3.422736
1272.860069 533.494012 104.606595 0.000000 0.000000 0.000000 0.000000 0.000000 0.000000 72.301471 -5.898018 -7.362491 -107.698529 11.717954 -7.362491 78.802573 0.627931 -29.468618 -154.772375 -4.467041 5.621439 26.927455 3.820165 29.468618 -15.307255 -0.382016 3.187120
1255.264664 498.243735 111.867351 0.000000 0.000000 0.000000 0.000000 0.000000 0.000000 164.596971 -6.983243 -11.755705 -15.403029 62.134480 -11.755705 125.849126 -4.964074 -28.531695 -156.067666 -4.542246 9.270510 33.087561 4.603315 28.531695 -14.691244 -0.460332 2.938926
1259.202232 470.407684 111.947513 0.000000 0.000000 0.000000 0.000000 0.000000 0.000000 -139.980397 13.527083 -15.410265 40.019603 -10.560872 -15.410265 165.887722 -0.485578 -27.144812 -157.901492 -5.824672 12.773379 35.196094 5.523945 27.144812 -14.480391 -0.552395 2.679134
1236.502075 429.951335 122.424412 0.000000 0.000000 0.000000 0.000000 0.000000 0.000000 -113.295066 -20.718967 -18.096541 66.704934 4.914006 -18.096541 -174.664169 0.158828 -25.329838 -159.007335 -4.797252 16.074804 32.868990 6.413372 25.329838 -14.713101 -0.641337 2.408768
1253.359451 413.942538 132.995878 0.000000 0.000000 0.000000 0.000000 0.000000 0.000000 -123.348580 1.983560 -19.645745 56.651420 -6.701854 -19.645745 -167.815074 5.094530 -23.115397 -159.603180 -5.993076 19.122720 32.791747 7.463031 23.115397 -14.720825 -0.746303 2.128896
